<svg width="25" height="25" viewBox="0 0 25 25" fill="none" xmlns="http://www.w3.org/2000/svg">
<g clip-path="url(#clip0_928_55)">
<path fill-rule="evenodd" clip-rule="evenodd" d="M3 0C1.34315 0 0 1.34315 0 3V22C0 23.6569 1.34315 25 3 25H22C23.6569 25 25 23.6569 25 22V3C25 1.34315 23.6569 0 22 0H3ZM3.96452 11.3868L19.5784 5.3346C20.7453 4.86371 21.2031 5.40523 20.9346 6.63426L18.3494 18.9389C18.1524 19.9374 17.6543 20.289 16.7389 19.7442L12.7974 16.7775L10.4961 18.9663C10.2134 19.2122 9.77027 19.2099 9.52825 18.7152L9.78954 15.5114L18.1078 7.9409C18.5736 7.5254 18.0322 7.42468 17.5034 7.80239L7.81829 13.8189L3.81265 12.5394C3.12367 12.2331 3.33619 11.6687 3.96452 11.3868Z" fill="white"/>
</g>
<defs>
<clipPath id="clip0_928_55">
<rect width="25" height="25" fill="white"/>
</clipPath>
</defs>
</svg>
